<svg xmlns="http://www.w3.org/2000/svg" viewBox="0 0 256 256" role="img" aria-label="QConvert logo">
  <defs><linearGradient id="sky" x1="0" y1="32" x2="0" y2="210" gradientUnits="userSpaceOnUse"><stop offset="0" stop-color="#dbeafe"/><stop offset="1" stop-color="#93c5fd"/></linearGradient><clipPath id="imageFill"><circle cx="126" cy="122" r="88"/></clipPath></defs>
  <circle cx="126" cy="122" r="88" fill="url(#sky)"/>
  <g clip-path="url(#imageFill)"><circle cx="190" cy="76" r="21" fill="#fff"/><path d="M14 232 79 113 148 232Z" fill="#1d4ed8"/><path d="M79 113 61 151 84 138 108 160 98 139Z" fill="#eaf3ff"/><path d="M44 232 158 94 250 232Z" fill="#60a5fa"/><path d="M158 94 141 122 154 112 168 128 176 121Z" fill="#eaf3ff"/></g>
  <circle cx="126" cy="122" r="91" fill="none" stroke="#1e40af" stroke-width="18"/>
  <circle cx="165" cy="165" r="10.5" fill="#1e40af"/><path d="M157.6 172.4 202.6 217.4 217.4 202.6 172.4 157.6Z" fill="#1e40af"/><path d="M172 218H218V172Z" fill="#1e40af"/>
</svg>
